HIERARCHY
ROOT newVegas:Hips
{
	OFFSET 0.000000 96.479958 0.000000
	CHANNELS 6 Xposition Yposition Zposition Xrotation Yrotation Zrotation
	JOINT newVegas:Pelvis
	{
		OFFSET 0.000000 0.000000 0.000000
		CHANNELS 3 Xrotation Yrotation Zrotation
		JOINT newVegas:LeftUpLeg
		{
			OFFSET 18.735201 -5.666702 -4.541200
			CHANNELS 3 Xrotation Yrotation Zrotation
			JOINT newVegas:LeftLeg
			{
				OFFSET -0.021200 -31.938179 0.493100
				CHANNELS 3 Xrotation Yrotation Zrotation
				JOINT newVegas:LeftFoot
				{
					OFFSET 0.021200 -31.938179 -4.336299
					CHANNELS 3 Xrotation Yrotation Zrotation
					JOINT newVegas:LeftToeBase
					{
						OFFSET 0.943001 -26.722000 15.023500
						CHANNELS 3 Xrotation Yrotation Zrotation
						End Site
						{
							OFFSET 0.000000 30.670183 0.000000
						}
					}
				}
				JOINT newVegas:Left_PantLeg
				{
					OFFSET 0.663870 -9.044666 -1.108900
					CHANNELS 3 Xrotation Yrotation Zrotation
					End Site
					{
						OFFSET 1.415995 20.635357 0.000000
					}
				}
			}
		}
		JOINT newVegas:RightUpLeg
		{
			OFFSET -18.735201 -5.666702 -4.541200
			CHANNELS 3 Xrotation Yrotation Zrotation
			JOINT newVegas:RightLeg
			{
				OFFSET 0.018946 -31.938133 0.493100
				CHANNELS 3 Xrotation Yrotation Zrotation
				JOINT newVegas:RightFoot
				{
					OFFSET -0.018946 -31.938126 -4.336299
					CHANNELS 3 Xrotation Yrotation Zrotation
					JOINT newVegas:RightToeBase
					{
						OFFSET -0.943001 -26.722004 15.023500
						CHANNELS 3 Xrotation Yrotation Zrotation
						End Site
						{
							OFFSET 0.000000 30.670187 0.000000
						}
					}
				}
				JOINT newVegas:Right_PantLeg
				{
					OFFSET -0.661674 -9.044716 -1.108900
					CHANNELS 3 Xrotation Yrotation Zrotation
					End Site
					{
						OFFSET -1.415958 20.635269 0.000000
					}
				}
			}
		}
	}
	JOINT newVegas:Spine
	{
		OFFSET 0.000000 10.199997 -0.299500
		CHANNELS 3 Xrotation Yrotation Zrotation
		JOINT newVegas:Spine1
		{
			OFFSET 0.000000 11.900002 -1.516600
			CHANNELS 3 Xrotation Yrotation Zrotation
			JOINT newVegas:Spine2
			{
				OFFSET 0.000000 13.600006 -2.842500
				CHANNELS 3 Xrotation Yrotation Zrotation
				JOINT newVegas:Neck
				{
					OFFSET 0.000000 9.624100 -2.890100
					CHANNELS 3 Xrotation Yrotation Zrotation
					JOINT newVegas:Head
					{
						OFFSET 0.000000 14.068802 -1.351900
						CHANNELS 3 Xrotation Yrotation Zrotation
						JOINT newVegas:Hair_Back
						{
							OFFSET 0.000000 3.231903 -17.524799
							CHANNELS 3 Xrotation Yrotation Zrotation
							End Site
							{
								OFFSET 0.000000 19.849884 0.000000
							}
						}
						JOINT newVegas:Hair_Front
						{
							OFFSET 0.000000 31.260406 4.573800
							CHANNELS 3 Xrotation Yrotation Zrotation
							JOINT newVegas:Hair_Front1
							{
								OFFSET 0.000000 2.284103 11.993300
								CHANNELS 3 Xrotation Yrotation Zrotation
								JOINT newVegas:Hair_Front2
								{
									OFFSET 0.000000 2.284103 11.993300
									CHANNELS 3 Xrotation Yrotation Zrotation
									End Site
									{
										OFFSET 0.000000 12.208862 0.000000
									}
								}
							}
						}
						JOINT newVegas:Jowel
						{
							OFFSET 0.000000 -7.458206 6.864100
							CHANNELS 3 Xrotation Yrotation Zrotation
							End Site
							{
								OFFSET 0.000000 19.849884 0.000000
							}
						}
					}
				}
				JOINT newVegas:LeftShoulder
				{
					OFFSET 15.263000 10.923401 -0.547700
					CHANNELS 3 Xrotation Yrotation Zrotation
					JOINT newVegas:LeftArm
					{
						OFFSET 25.438599 -2.830597 -13.032500
						CHANNELS 3 Xrotation Yrotation Zrotation
						JOINT newVegas:LeftForeArm
						{
							OFFSET 29.960503 0.000000 0.000000
							CHANNELS 3 Xrotation Yrotation Zrotation
							JOINT newVegas:LeftHand
							{
								OFFSET 27.849251 0.000000 0.000000
								CHANNELS 3 Xrotation Yrotation Zrotation
								JOINT newVegas:LeftHandThumb1
								{
									OFFSET 4.487587 -3.305161 6.305391
									CHANNELS 3 Xrotation Yrotation Zrotation
									JOINT newVegas:LeftHandThumb2
									{
										OFFSET 5.480453 -3.164139 3.164143
										CHANNELS 3 Xrotation Yrotation Zrotation
										JOINT newVegas:LeftHandThumb3
										{
											OFFSET 5.159721 -2.978973 2.978967
											CHANNELS 3 Xrotation Yrotation Zrotation
											End Site
											{
												OFFSET 2.494507 5.926697 1.738678
											}
										}
									}
								}
								JOINT newVegas:LeftHandIndex1
								{
									OFFSET 18.578728 -0.527832 5.208049
									CHANNELS 3 Xrotation Yrotation Zrotation
									JOINT newVegas:LeftHandIndex2
									{
										OFFSET 3.192009 0.000000 0.000000
										CHANNELS 3 Xrotation Yrotation Zrotation
										JOINT newVegas:LeftHandIndex3
										{
											OFFSET 3.835129 0.000000 0.000000
											CHANNELS 3 Xrotation Yrotation Zrotation
											End Site
											{
												OFFSET -0.034599 3.816971 0.371180
											}
										}
									}
								}
								JOINT newVegas:LeftHandMiddle1
								{
									OFFSET 18.476105 0.000000 0.000000
									CHANNELS 3 Xrotation Yrotation Zrotation
									JOINT newVegas:LeftHandMiddle2
									{
										OFFSET 3.324875 0.000000 0.000000
										CHANNELS 3 Xrotation Yrotation Zrotation
										JOINT newVegas:LeftHandMiddle3
										{
											OFFSET 4.596550 0.000000 0.000000
											CHANNELS 3 Xrotation Yrotation Zrotation
											End Site
											{
												OFFSET 0.057701 4.578827 0.399218
											}
										}
									}
								}
								JOINT newVegas:LeftHandRing1
								{
									OFFSET 17.732719 0.121887 -4.201567
									CHANNELS 3 Xrotation Yrotation Zrotation
									JOINT newVegas:LeftHandRing2
									{
										OFFSET 2.733170 0.000000 0.000000
										CHANNELS 3 Xrotation Yrotation Zrotation
										JOINT newVegas:LeftHandRing3
										{
											OFFSET 3.178268 0.000000 0.000000
											CHANNELS 3 Xrotation Yrotation Zrotation
											End Site
											{
												OFFSET 0.119102 3.170624 0.185394
											}
										}
									}
								}
								JOINT newVegas:LeftHandPinky1
								{
									OFFSET 15.989624 -0.606689 -7.535461
									CHANNELS 3 Xrotation Yrotation Zrotation
									JOINT newVegas:LeftHandPinky2
									{
										OFFSET 2.538986 0.000000 0.000000
										CHANNELS 3 Xrotation Yrotation Zrotation
										JOINT newVegas:LeftHandPinky3
										{
											OFFSET 2.593102 0.000000 0.000000
											CHANNELS 3 Xrotation Yrotation Zrotation
											End Site
											{
												OFFSET -0.150902 2.584198 0.152708
											}
										}
									}
								}
							}
							JOINT newVegas:Left_Sleeve
							{
								OFFSET 0.267448 -0.649796 0.577675
								CHANNELS 3 Xrotation Yrotation Zrotation
								End Site
								{
									OFFSET 0.000000 15.991241 0.000000
								}
							}
							JOINT newVegas:Left_CapeC
							{
								OFFSET 15.715958 -8.608795 -6.935905
								CHANNELS 3 Xrotation Yrotation Zrotation
								JOINT newVegas:Left_CapeC1
								{
									OFFSET 0.000000 -8.688499 0.000000
									CHANNELS 3 Xrotation Yrotation Zrotation
									End Site
									{
										OFFSET 0.000000 8.688499 0.000000
									}
								}
							}
						}
						JOINT newVegas:Left_CapeB
						{
							OFFSET 26.118385 -8.608795 -7.079235
							CHANNELS 3 Xrotation Yrotation Zrotation
							JOINT newVegas:Left_CapeB1
							{
								OFFSET 0.000000 -8.688499 0.000000
								CHANNELS 3 Xrotation Yrotation Zrotation
								End Site
								{
									OFFSET 0.000000 8.688499 0.000000
								}
							}
						}
						JOINT newVegas:Left_CapeA
						{
							OFFSET 5.115639 -8.608795 -10.395809
							CHANNELS 3 Xrotation Yrotation Zrotation
							JOINT newVegas:Left_CapeA1
							{
								OFFSET 0.000000 -8.688499 0.000000
								CHANNELS 3 Xrotation Yrotation Zrotation
								End Site
								{
									OFFSET 0.000000 8.688499 0.000000
								}
							}
						}
					}
				}
				JOINT newVegas:RightShoulder
				{
					OFFSET -15.263000 10.923401 -0.547700
					CHANNELS 3 Xrotation Yrotation Zrotation
					JOINT newVegas:RightArm
					{
						OFFSET -25.438599 -2.830597 -13.032500
						CHANNELS 3 Xrotation Yrotation Zrotation
						JOINT newVegas:RightForeArm
						{
							OFFSET -29.960503 0.000000 0.000000
							CHANNELS 3 Xrotation Yrotation Zrotation
							JOINT newVegas:RightHand
							{
								OFFSET -27.849251 0.000000 0.000000
								CHANNELS 3 Xrotation Yrotation Zrotation
								JOINT newVegas:RightHandThumb1
								{
									OFFSET -4.487587 -3.305161 6.305391
									CHANNELS 3 Xrotation Yrotation Zrotation
									JOINT newVegas:RightHandThumb2
									{
										OFFSET -5.480453 -3.164139 3.164143
										CHANNELS 3 Xrotation Yrotation Zrotation
										JOINT newVegas:RightHandThumb3
										{
											OFFSET -5.159721 -2.978973 2.978967
											CHANNELS 3 Xrotation Yrotation Zrotation
											End Site
											{
												OFFSET -2.494507 5.926697 1.738678
											}
										}
									}
								}
								JOINT newVegas:RightHandIndex1
								{
									OFFSET -18.578728 -0.527832 5.208049
									CHANNELS 3 Xrotation Yrotation Zrotation
									JOINT newVegas:RightHandIndex2
									{
										OFFSET -3.192009 0.000000 0.000000
										CHANNELS 3 Xrotation Yrotation Zrotation
										JOINT newVegas:RightHandIndex3
										{
											OFFSET -3.835129 0.000000 0.000000
											CHANNELS 3 Xrotation Yrotation Zrotation
											End Site
											{
												OFFSET 0.034599 3.816971 0.371180
											}
										}
									}
								}
								JOINT newVegas:RightHandMiddle1
								{
									OFFSET -18.476105 0.000000 0.000000
									CHANNELS 3 Xrotation Yrotation Zrotation
									JOINT newVegas:RightHandMiddle2
									{
										OFFSET -3.324875 0.000000 0.000000
										CHANNELS 3 Xrotation Yrotation Zrotation
										JOINT newVegas:RightHandMiddle3
										{
											OFFSET -4.596550 0.000000 0.000000
											CHANNELS 3 Xrotation Yrotation Zrotation
											End Site
											{
												OFFSET -0.057701 4.578827 0.399218
											}
										}
									}
								}
								JOINT newVegas:RightHandRing1
								{
									OFFSET -17.732719 0.121887 -4.201567
									CHANNELS 3 Xrotation Yrotation Zrotation
									JOINT newVegas:RightHandRing2
									{
										OFFSET -2.733170 0.000000 0.000000
										CHANNELS 3 Xrotation Yrotation Zrotation
										JOINT newVegas:RightHandRing3
										{
											OFFSET -3.178268 0.000000 0.000000
											CHANNELS 3 Xrotation Yrotation Zrotation
											End Site
											{
												OFFSET -0.119102 3.170624 0.185394
											}
										}
									}
								}
								JOINT newVegas:RightHandPinky1
								{
									OFFSET -15.989624 -0.606689 -7.535461
									CHANNELS 3 Xrotation Yrotation Zrotation
									JOINT newVegas:RightHandPinky2
									{
										OFFSET -2.538986 0.000000 0.000000
										CHANNELS 3 Xrotation Yrotation Zrotation
										JOINT newVegas:RightHandPinky3
										{
											OFFSET -2.593102 0.000000 0.000000
											CHANNELS 3 Xrotation Yrotation Zrotation
											End Site
											{
												OFFSET 0.150902 2.584198 0.152708
											}
										}
									}
								}
							}
							JOINT newVegas:Right_CapeC
							{
								OFFSET -15.715958 -8.608795 -6.935905
								CHANNELS 3 Xrotation Yrotation Zrotation
								JOINT newVegas:Right_CapeC1
								{
									OFFSET 0.000000 -8.688499 0.000000
									CHANNELS 3 Xrotation Yrotation Zrotation
									End Site
									{
										OFFSET 0.000000 8.688499 0.000000
									}
								}
							}
							JOINT newVegas:Right_Sleeve
							{
								OFFSET -0.267448 -0.649994 0.577675
								CHANNELS 3 Xrotation Yrotation Zrotation
								End Site
								{
									OFFSET 0.000000 15.991302 0.000000
								}
							}
						}
						JOINT newVegas:Right_CapeA
						{
							OFFSET -5.115540 -8.608795 -10.395824
							CHANNELS 3 Xrotation Yrotation Zrotation
							JOINT newVegas:Right_CapeA1
							{
								OFFSET 0.000000 -8.688499 0.000000
								CHANNELS 3 Xrotation Yrotation Zrotation
								End Site
								{
									OFFSET 0.000000 8.688499 0.000000
								}
							}
						}
						JOINT newVegas:Right_CapeB
						{
							OFFSET -26.118187 -8.608795 -7.079266
							CHANNELS 3 Xrotation Yrotation Zrotation
							JOINT newVegas:Right_CapeB1
							{
								OFFSET 0.000000 -8.688499 0.000000
								CHANNELS 3 Xrotation Yrotation Zrotation
								End Site
								{
									OFFSET 0.000000 8.688499 0.000000
								}
							}
						}
					}
				}
				JOINT newVegas:Left_Collar
				{
					OFFSET 18.625099 8.655502 8.828100
					CHANNELS 3 Xrotation Yrotation Zrotation
					JOINT newVegas:Left_Collar1
					{
						OFFSET 14.783401 10.540405 -1.259500
						CHANNELS 3 Xrotation Yrotation Zrotation
						End Site
						{
							OFFSET 0.000000 18.199875 0.000000
						}
					}
				}
				JOINT newVegas:Collar_Back
				{
					OFFSET 0.000000 15.630707 -20.132601
					CHANNELS 3 Xrotation Yrotation Zrotation
					End Site
					{
						OFFSET 0.000000 22.523010 0.000000
					}
				}
				JOINT newVegas:Left_Peck
				{
					OFFSET 17.239599 -5.132599 25.482599
					CHANNELS 3 Xrotation Yrotation Zrotation
					End Site
					{
						OFFSET 0.000000 22.523010 0.000000
					}
				}
				JOINT newVegas:Right_Peck
				{
					OFFSET -17.239599 -5.132202 25.482599
					CHANNELS 3 Xrotation Yrotation Zrotation
					End Site
					{
						OFFSET 0.000000 22.523010 0.000000
					}
				}
				JOINT newVegas:Right_Collar
				{
					OFFSET -18.625099 8.655792 8.828100
					CHANNELS 3 Xrotation Yrotation Zrotation
					JOINT newVegas:Right_Collar1
					{
						OFFSET -14.783401 10.539993 -1.259500
						CHANNELS 3 Xrotation Yrotation Zrotation
						End Site
						{
							OFFSET 0.000000 18.199631 0.000000
						}
					}
				}
			}
		}
		JOINT newVegas:Belly
		{
			OFFSET 0.000000 -6.540398 9.014299
			CHANNELS 3 Xrotation Yrotation Zrotation
			End Site
			{
				OFFSET 0.000000 11.566666 0.000000
			}
		}
	}
	JOINT newVegas:ElvisFacialAnim_Joint
	{
		OFFSET 1.000000 -95.330101 -8.825800
		CHANNELS 3 Xrotation Yrotation Zrotation
		End Site
		{
			OFFSET 0.000000 35.315800 0.000000
		}
	}
}
MOTION
Frames: 4
Frame Time: 0.033333
-1.385880 76.143509 27.772902 -26.014693 -76.764865 -13.166356 -0.000000 -0.000000 0.000000 -32.470586 15.196432 33.393089 56.186359 0.774511 -2.264086 -3.519224 12.355138 -25.867079 -0.000000 -0.000000 -0.000000 -0.000000 0.000003 0.000000 -25.875381 22.146385 -42.887086 67.254441 10.485712 -10.295408 -40.042028 10.450115 30.729581 0.000000 -0.000001 0.000000 -0.000000 0.000001 -0.000003 10.673047 -2.072294 19.791684 -0.559499 0.052188 5.840007 -0.511376 0.114847 6.074447 -1.977034 2.797818 4.021172 -1.977091 2.797781 4.021198 0.000001 -0.000000 0.000000 -1.976792 2.797794 4.021175 -1.977232 2.797914 4.021162 -0.000000 0.000000 -0.000000 0.000001 -0.000000 0.000001 -1.802200 11.119696 8.929289 -18.415013 -2.137630 -84.826667 -0.000007 -62.642793 -0.000005 -104.136787 -31.155864 -5.474108 4.368805 9.059699 3.114084 19.796380 -1.487633 7.816119 -0.000000 -0.000003 -0.000001 -0.326320 3.788488 -36.843021 2.927854 5.070713 -59.983152 -0.000001 -0.000001 0.000002 0.381861 5.464603 -52.012635 3.384310 5.307305 -65.026980 -0.000001 -0.000001 -0.000000 -0.074381 5.736757 -61.061413 4.022221 5.558828 -71.756444 0.000000 0.000001 -0.000002 -6.383053 4.602801 -72.420236 3.299620 5.267193 -64.107848 -0.000003 -0.000002 0.000000 0.000000 -0.000002 -0.000002 0.000000 -0.000002 -0.000002 -0.000000 -0.000002 -0.000002 -0.000001 -0.000001 0.000003 -0.000001 -0.000003 0.000001 -0.000001 -0.000001 0.000003 -0.000001 -0.000002 0.000002 0.169267 -5.393645 -4.798690 -20.064201 -5.337818 -5.415344 0.000014 68.223160 -0.000003 -0.970544 34.787352 -5.791753 45.757298 32.946114 -1.462654 9.111760 -5.987928 -1.662527 0.000002 -0.000002 -0.000001 -1.994989 0.388870 28.227589 1.868238 -3.731230 53.182332 -0.000000 0.000000 0.000001 0.653978 -4.625036 35.725909 1.591258 -3.507296 48.796907 0.000001 -0.000001 0.000002 3.899187 -8.980702 36.562276 2.199176 -3.956889 58.115532 0.000000 0.000001 -0.000000 3.645514 -7.677187 46.546202 0.206637 -1.373245 17.113980 0.000000 0.000003 0.000002 0.000002 0.000001 -0.000000 0.000003 0.000000 0.000000 0.000002 0.000001 -0.000000 -0.000001 -0.000001 0.000006 -0.000000 -0.000002 0.000004 -0.000001 -0.000001 0.000006 0.000000 -0.000002 0.000006 0.000000 -0.000001 -0.000002 0.000000 -0.000001 -0.000002 0.000000 -0.000001 -0.000002 0.000000 -0.000001 -0.000002 0.000000 -0.000001 -0.000002 0.000000 -0.000001 -0.000002 0.000000 -0.000001 -0.000002 -0.000000 0.000000 0.000002 -0.000000 -0.000000 0.000000 
-1.841684 77.049492 31.209574 -28.138622 -71.613837 -16.287380 0.000001 -0.000003 -0.000001 -32.540589 13.216302 31.449828 59.864327 2.237108 -1.511574 -7.294652 9.001168 -23.531158 0.000000 -0.000000 -0.000000 -0.000000 0.000004 -0.000001 -16.487115 15.942874 -43.732335 63.876687 9.595202 -10.531298 -40.521535 5.830379 25.961436 0.000000 -0.000001 0.000001 0.000002 0.000001 0.000001 7.302184 -2.589599 20.467148 -0.703893 0.009932 6.246139 -0.623986 0.089052 6.473611 -1.264554 2.627934 3.476367 -1.264528 2.627943 3.476365 0.000000 0.000000 -0.000001 -1.264648 2.627989 3.476358 -1.264481 2.627921 3.476371 -0.000000 -0.000001 -0.000001 0.000000 0.000000 -0.000001 -1.929650 12.197098 8.554713 -22.754963 -6.763790 -88.574050 -0.000006 -55.035731 -0.000008 -103.495445 -31.797625 -4.421550 4.361603 9.049383 3.113975 19.803609 -1.487793 7.819925 0.000001 -0.000002 -0.000003 -0.328931 3.785091 -36.844561 2.927541 5.070528 -59.979545 -0.000001 -0.000001 -0.000002 0.381358 5.463703 -52.003244 3.384241 5.307272 -65.026393 0.000003 -0.000001 0.000001 -0.074382 5.736754 -61.061413 4.021519 5.558609 -71.749314 -0.000001 -0.000000 -0.000002 -6.379056 4.604064 -72.420100 3.299625 5.267189 -64.107848 -0.000001 -0.000002 -0.000002 0.000001 -0.000002 -0.000002 0.000001 -0.000002 -0.000002 0.000000 -0.000002 -0.000002 -0.000002 -0.000001 0.000001 -0.000002 -0.000001 0.000000 -0.000002 -0.000001 0.000001 -0.000002 -0.000001 0.000000 0.313526 -4.658539 -2.742839 -41.200162 1.953020 -2.959440 -0.000014 69.274026 0.000001 -5.829788 33.586963 -14.453001 48.343703 35.266480 -7.186623 10.483813 -2.855710 -2.687970 -0.000002 0.000000 0.000003 -1.940952 0.931270 25.284044 1.821121 -3.695562 52.454859 -0.000001 0.000001 0.000001 0.416488 -4.209968 32.120037 1.549810 -3.470643 48.115807 0.000001 -0.000001 -0.000001 3.989223 -9.479176 34.168254 2.117167 -3.904799 56.919364 -0.000001 0.000001 0.000002 3.830625 -8.022841 44.432594 0.164591 -1.228489 15.262713 -0.000004 0.000003 0.000002 0.000001 0.000004 0.000001 0.000001 0.000001 0.000002 0.000001 0.000005 0.000002 -0.000000 -0.000001 0.000002 -0.000001 0.000000 0.000001 -0.000000 -0.000001 0.000002 -0.000001 0.000001 0.000003 0.000000 -0.000000 -0.000001 0.000000 -0.000000 -0.000001 0.000000 -0.000000 -0.000001 0.000000 -0.000000 -0.000001 0.000000 -0.000000 -0.000001 0.000000 -0.000000 -0.000001 0.000000 -0.000000 -0.000001 -0.000001 0.000000 -0.000000 0.000001 -0.000003 -0.000001 
-2.423252 78.450615 34.294464 -28.931664 -65.367636 -17.517005 0.000000 0.000000 -0.000000 -31.143439 11.557538 28.007694 60.814270 3.466900 -0.116012 -9.329304 6.469299 -21.612004 -0.000000 0.000000 -0.000000 -0.000002 -0.000000 0.000000 -6.912738 8.919592 -42.628696 59.634143 9.042195 -10.909982 -38.534548 0.373129 20.646692 0.000000 0.000002 -0.000002 -0.000001 0.000001 -0.000007 2.521058 -2.175461 19.913765 -0.712290 0.183830 6.385002 -0.588221 0.269755 6.591409 -0.347872 2.309060 2.809120 -0.347875 2.309076 2.809117 0.000000 0.000000 0.000000 -0.347787 2.309064 2.809117 -0.347926 2.309057 2.809118 -0.000003 -0.000001 0.000003 0.000000 0.000000 -0.000001 -1.537186 10.761663 7.285595 -26.895200 -12.035419 -91.539589 0.000013 -45.220248 0.000004 -106.515263 -33.033049 -5.990973 4.354429 9.039673 3.114111 19.810653 -1.487800 7.823592 0.000000 -0.000002 -0.000003 -0.331450 3.781790 -36.845800 2.927220 5.070365 -59.976096 -0.000000 0.000003 -0.000001 0.380879 5.462841 -51.994272 3.384209 5.307225 -65.025832 -0.000001 0.000001 -0.000001 -0.074375 5.736757 -61.061413 4.020868 5.558395 -71.742490 -0.000002 0.000001 0.000000 -6.375154 4.605287 -72.420018 3.299624 5.267190 -64.107848 -0.000001 -0.000003 -0.000002 -0.000002 -0.000001 -0.000001 -0.000002 -0.000001 -0.000001 -0.000003 -0.000001 -0.000001 -0.000000 -0.000001 -0.000001 -0.000001 -0.000001 -0.000003 -0.000000 -0.000001 -0.000001 -0.000002 -0.000001 -0.000002 0.607606 -2.801874 -0.430481 -62.128623 0.422107 4.900342 -0.000070 80.765156 0.000059 -6.163967 32.614129 -26.359580 50.297206 25.931109 -7.484013 5.256016 -11.636482 -1.603319 0.000000 -0.000001 -0.000002 -3.245353 -0.403033 42.109622 1.933778 -3.779295 54.183010 -0.000002 -0.000001 -0.000000 0.470792 -4.806426 49.938641 1.773001 -3.658148 51.704467 -0.000003 0.000001 -0.000000 1.963692 -6.083260 47.338416 2.391557 -4.069976 60.863672 -0.000000 -0.000001 0.000000 3.936947 -7.438483 54.557376 0.298094 -1.640994 20.590078 0.000001 0.000003 0.000000 0.000001 0.000003 -0.000003 -0.000000 0.000002 -0.000003 0.000001 0.000002 -0.000004 0.000000 0.000005 -0.000003 0.000000 0.000006 -0.000002 0.000000 0.000005 -0.000003 0.000000 0.000006 -0.000001 0.000000 -0.000001 0.000001 0.000000 -0.000001 0.000001 0.000000 -0.000001 0.000001 0.000000 -0.000001 0.000001 0.000000 -0.000001 0.000001 0.000000 -0.000001 0.000001 0.000000 -0.000001 0.000001 -0.000000 0.000003 0.000001 0.000000 0.000000 -0.000000 
-3.034377 80.063087 36.777050 -29.364008 -59.263332 -17.898197 -0.000000 0.000000 -0.000000 -28.764771 10.292083 24.470287 59.771634 4.537077 1.173140 -10.045849 4.186767 -20.031232 0.000000 -0.000000 0.000000 -0.000001 -0.000000 0.000000 0.305543 1.769320 -41.695436 53.733532 7.081142 -11.440875 -33.058833 -0.934634 20.259164 0.000000 -0.000001 0.000000 -0.000000 0.000001 -0.000004 -2.773308 0.570996 18.809088 -0.689023 0.715816 5.998206 -0.516115 0.798286 6.177080 0.560524 1.819629 2.167684 0.560533 1.819651 2.167698 -0.000002 0.000001 -0.000000 0.560569 1.819770 2.167654 0.560501 1.819450 2.167718 0.000001 0.000002 -0.000001 -0.000002 0.000001 0.000000 -0.588219 5.456744 5.305973 -30.164021 -16.743703 -92.735835 0.000013 -35.617845 0.000008 -111.211032 -34.059503 -7.839516 4.347457 9.030410 3.114799 19.817367 -1.487942 7.827121 -0.000000 0.000001 -0.000006 -0.333954 3.778550 -36.846996 2.926910 5.070156 -59.972428 -0.000002 -0.000003 0.000001 0.380413 5.462047 -51.985755 3.384163 5.307219 -65.025293 -0.000003 -0.000001 0.000002 -0.074379 5.736756 -61.061406 4.020213 5.558186 -71.736029 0.000001 0.000001 0.000002 -6.371330 4.606490 -72.419915 3.299626 5.267194 -64.107848 -0.000001 -0.000001 -0.000004 -0.000001 -0.000002 -0.000001 -0.000001 -0.000002 -0.000001 -0.000002 -0.000002 -0.000001 0.000000 -0.000001 -0.000001 -0.000000 -0.000002 -0.000003 0.000000 -0.000001 -0.000001 -0.000002 -0.000002 -0.000002 0.932201 0.870579 3.017182 -79.722767 -7.625741 11.407171 0.000164 98.164319 -0.000156 -3.255344 33.256082 -44.868640 52.439286 21.090945 -10.929050 1.055590 -19.828743 -1.509573 0.000002 0.000004 -0.000002 -3.768473 -2.202620 56.190061 2.247123 -3.986247 58.807826 -0.000001 -0.000000 0.000003 0.198904 -5.311710 64.846397 2.241172 -3.982647 58.722176 -0.000001 -0.000004 -0.000002 -0.419399 -4.548841 57.624332 3.063972 -4.376731 69.975254 0.000000 0.000001 0.000003 3.993994 -7.151774 62.497255 0.595248 -2.280070 29.259192 -0.000002 0.000002 0.000000 -0.000003 0.000001 -0.000002 -0.000001 -0.000001 -0.000003 -0.000003 0.000000 -0.000001 -0.000000 0.000000 -0.000001 -0.000000 0.000000 -0.000002 -0.000000 0.000000 -0.000001 -0.000000 -0.000000 -0.000001 -0.000001 0.000003 0.000001 -0.000001 0.000003 0.000001 -0.000001 0.000003 0.000001 -0.000001 0.000003 0.000001 -0.000001 0.000003 0.000001 -0.000001 0.000003 0.000001 -0.000001 0.000003 0.000001 -0.000000 -0.000001 0.000000 -0.000000 0.000000 -0.000000 
